<svg version="1.1" id="Layer_1" xmlns="http://www.w3.org/2000/svg" x="0" y="0" width="284.9" height="94.2" xml:space="preserve"><style>.st2{fill:#f9faf8}.st27{fill:#f5f6f5}.st28{fill:#f9f9f9}.st29{fill:#f8f8f8}.st30{fill:#f5f5f4}.st33{fill:#f8f9f8}.st34{fill:#f8f8f9}.st37{fill:#f8f9f7}.st38{fill:#f9faf9}.st41{fill:#0b0b0c}.st45{fill:#0b0b0b}.st46{fill:#0c0c0c}.st47{fill:#00a36d}.st48{fill:#009f73}.st55{fill:#f8faf8}</style><path d="M61.5 54.3c-1.4.3-2.8-.1-4.2-.4-2.2-.5-2.2-.5-1.4-2.7 5-15.1 4.4-15.4 6-14.9v2.6c-.7.4-1 .9-1.2 1.7-2.3 10.2-2.8 10.3-1.9 10.5.6.1.8-.3.8-.8.2-1.5.5-3.1.8-4.6.7-5.2.8-5.3 1.5-5.4 0 7.7.2 13.2-.4 14z" fill="#00a55f"/><path d="M61.9 18.6c-.7-.1-.2.7-4.5-16.9-.3-1.1.2-.9 4.5-1.5 0 2.7.1 2.7-.3 2.9-2.5 1.3-1 .4 0 10.7 0 .2.1.4.2.5.1 1.4.1 2.9.1 4.3z" fill="#1b9d75"/><path class="st2" d="M61.9 40.4c-.6.5-.4.3-1.9 10.1-.2 1.3-.4 1.4-1.6 1-.5-.2-.5-.3-.4-.8 3.1-12.6 2.3-11.9 3.9-11.7v1.4z"/><path d="M59.9 3.8c-.1-.9.1-.7 2.1-1-.1 16.3.1 14.4-2.1 1z" fill="#fbfcfb"/><path d="M61.5 54.3c-.1-.6 0-1.2.4-1.7 0 2 .1 1.7-.4 1.7z" fill="#a8d5ba"/><path d="M47.6 5.4c1.2 1.4 5.1 7.1 10.2 14 .6.8.1 1-.3 1.4-.4.4-.8.8-1.4.2-14.3-12.5-14.2-10.7-11-13.6.6-.6 1.8-1.5 2.5-2z" fill="#309a77"/><path d="M9.1 27.4c-9 0-9.2.4-9.1-.9.6-5.3.4-5.6 1.6-5.3 16.7 4.3 17.1 3.6 16.6 4.8-.6 1.8 2.5 1.4-9.1 1.4z" fill="#688882"/><path d="M43.2 49.3c0 .5.1.3-4.9 3.1-.9.5-.2.8-7.3-15.8-.4-.9.3-1.1.8-1.4.5-.3.8-.5 1.3.1 3.2 4.5 10 13.8 10.1 14z" fill="#51927d"/><path d="M20.8 19.8c.5.5.5.9-.1 1.2-.4.2-.4 1.3-1.5.5-4.2-3.2-6.4-4.6-13.5-9.8-.4-.3-1.3-.1 3.4-4.7.7-.7.3-.5 11.7 12.8z" fill="#6f8684"/><path d="M5.4 43.2c-.8 0-2.7-4.1-3.1-4.9-.4-.9-.6-.2 15.9-7.2 1.1-.5 1 .6 1.4 1 .4.4.2.7-.2 1-5.8 4.2-13 9.5-14 10.1z" fill="#638b81"/><path d="M53.1 36.2c-.7 1.9-1.4 3.6-2.5 5.2-.2.4-.6 0-.8-.1-4.2-2.5-13.3-8.2-13.8-8.5-.9-.6-1-1.5-.2-2.3.3-.3-1-.6 16.3 4.9.4.1 1 .2 1 .8z" fill="#4a947c"/><path d="M28.1 0c5.1.7 5.7.4 5.3 1.7-4.3 17.4-3.4 16.9-5.2 16.6-.8-.1-.9-.4-.9-1.1.1-16.7-.5-17.5.8-17.2z" fill="#778286"/><path d="M24.3.3c1.4-.6.8 0 2.2 17 .1.9-.3.9-1 1.1-.6.1-1.1.3-1.4-.6C18.8 1 18.2 1.5 19.9 1.1c1.4-.3 2.8-.6 4.4-.8z" fill="#748486"/><path d="M41.4 4.3c-1.3 2.4-8.1 13.2-8.7 14.3-.6 1-1.5 1.1-2.3.3-.3-.3-.2-.5-.1-.9C35.9.8 35.4 1.1 36.5 1.7c4.5 2.2 4.8 2.1 4.9 2.6z" fill="#7a8186"/><path d="M53.6 20c.5.4 1 .8 1.5 1.1 1 .6 1.2 1.2.4 2.2-.7.9.8 1-16.4-6-.6-.2-.7-.5-.4-1.1.7-1.5 1.6-2.9 2.5-4.4.5-.8.3-.6 11 7.2.5.3 1 .5 1.4 1z" fill="#379878"/><path d="M49.2 43.5c-.5.9.5-.4-3.4 4-1.4 1.5-1.2-.5-12.1-12.6-.3-.4-.6-.7 0-1 .5-.3.6-1.3 1.6-.6 9.3 6.8 13.8 9.7 13.9 10.2z" fill="#4d937d"/><path d="M54.8 1.6c.8-.1.1-.9 5.8 16.4.3.9-.2 1.1-.8 1.3-.5.2-.9.6-1.4-.2-10-16.6-9.7-14.6-7.7-15.7 3.4-1.7 3-1.4 4.1-1.8z" fill="#289b76"/><path d="M22.1 19.9c-.4 0 .3.6-10.5-14.1-.3-.4-.1-.6.2-.9 1.4-1.1 3-1.9 4.7-2.6.6-.3-.1-1.2 6.9 15.5.4 1-.4 2.1-1.3 2.1z" fill="#728585"/><path d="M21.9 34.8c-1.3 2.1-4.3 5.9-10.1 14.1-.4.5-.6.5-1.1.1-1.3-1-2.4-2.1-3.5-3.2-.5-.5-.3-.8.1-1.2 3.3-2.8 11.6-9.9 12.6-10.7.5-.6.2-.8 2 .9z" fill="#608c80"/><path d="M17.3 28.2c1.1-.4.9.7 1.1 1.4.4.9-.4.9-.9 1C.3 36.2 1.4 36.1 1.2 35.2c-.5-1.6-.8-3.2-1-4.8-.2-1.7.4-.6 17.1-2.2z" fill="#668a82"/><path d="M19.3 52.1c-.5 1.7-1 1.2-5.6-1.1-.4-.2-.7-.4-.3-1 9.6-15.5 9-15.1 9.4-14.8 2.2 1.8 2.6-2.7-3.5 16.9z" fill="#5b8e7f"/><path d="M4.2 13.2c.7.5 14.6 9 14.7 9.1.4.3.4.5.3 1-.4 1.4-1.1 1.2-2.2.8C1.4 18.7.9 19.6 1.7 18c.3-.7 1.9-4.8 2.5-4.8z" fill="#6c8883"/><path d="M29.5 36.2c.6-.2.7.2.8.6 1.4 4.2 4.7 14.7 5.1 15.8.4 1.1-.1 1-5.1 1.9-1.5.3-.8.5-2.3-17.1-.1-1.5 1.1-.9 1.5-1.2z" fill="#55907e"/><path d="M53 52.5c-.1 0-3.7-1.8-5-2.8-.5-.4-.2-.7.1-1C58.6 34.3 58 34.3 59 35.1c.5.4 1.3.4.9 1.5-7.2 16.7-6.5 15.9-6.9 15.9z" fill="#00a65e"/><path d="M27.3 45.6c0 9.1.4 9-.9 9-1.5-.1-3-.3-4.5-.5-.7-.1-.9-.3-.7-1.1 4.3-17.5 3.6-17.1 4.9-16.6 1.5.5 1.2-1.9 1.2 9.2z" fill="#598f7e"/><path d="M45.4 27.5c9.1 0 9.3-.4 9.1 1-.6 5-.4 5.5-1.6 5.2-21.6-5.3-16.1-3.6-16.6-5.6-.2-.9-.1-.6 9.1-.6z" fill="#47967c"/><path d="M52.9 26.5c-16.6-1.3-16.5-.8-16.3-2.2.2-1.5.5-2.9.8-4.3.2-.9.7-.9 1.4-.7 18.2 6 16 4.6 15.9 6.6-.1 1-.7.7-1.8.6z" fill="#3e9679"/><path class="st27" d="M46.9 10.7c-.5-.5-.6-.9 0-1.4.6-.6 1-.4 1.4.2 8.3 9.8 7.8 8.9 7.5 9.3-.6.5.5 1.2-8.9-8.1z"/><path class="st28" d="M3.6 23.6c12.8 2.2 12.2 1.8 12.1 2.4-.1.8.2.5-12.3-.4-.6 0-.8-.3-.6-.8.1-.5-.2-1.3.8-1.2z"/><path class="st29" d="M38.7 49.2c-.4-.1-.1.4-5.7-10.7-.2-.4-.4-.8.1-1 .5-.2.6.2.8.5 6.8 11.1 6.3 10.2 6.1 10.4-.4.4-.9.6-1.3.8zM9.9 9.9c.7.9-1-.9 8.4 8.5.3.3.8.5.4 1.1-.5.5-.8-.1-1.1-.3-9.9-8.4-9.1-7.7-8.8-8.1.3-.4.7-.7 1.1-1.2zM6.4 40.2c-.5-.2-.6-.7-.8-1-.4-.6-.6-.5 10.5-6 .3-.2.7-.6 1 .1.3.5.5-.2-10.7 6.9z"/><path class="st30" d="M49.9 37.1c-.1 1-.8 1.4-1.7.9-11.1-5.6-10.7-5.1-10.4-5.7.3-.6.7-.2 1.1-.1 11.7 4.9 11.1 4.5 11 4.9z"/><path d="M28.2 14.9C29.3 1.6 28.8 3 30.4 3c1.2 0 .9-.1-1.1 11.9-.1.4 0 .9-.6.8-.7 0-.4-.5-.5-.8z" fill="#f9f9fa"/><path d="M24.9 15.9c-.4.1-.5-.3-.6-.6-2.8-11.9-3.2-12-2-12 .4 0 1-.5 1.1.3 2 11.7 2.3 12.2 1.5 12.3z" fill="#f9fafa"/><path class="st28" d="M38.4 5.6C32.3 18 32.7 17 32.2 16.9c-.7-.3-.7.4 4.3-11.6.1-.3.2-.7.6-.5.4.2 1 .4 1.3.8z"/><path class="st27" d="M53.5 21.4c-.6 1.1.8 1.2-11.3-4.9-.8-.4-.4-.8-.2-1.2.2-.5.4-.9 1.1-.4 10.5 6.5 10.4 6.1 10.4 6.5z"/><path class="st30" d="M36.2 35c.9.6 5 4.3 9.3 7.9.7.6.2.8-.1 1.2-.3.4-.6.8-1.2.2-9.4-9.5-9.1-8.4-8-9.3z"/><path class="st33" d="M58.6 16.9c-.4.2-.5-.2-.7-.5C51.1 2.9 52.4 6 53.6 4.9c.5-.5.7 0 .9.5 4.6 11.1 4.9 11.2 4.1 11.5z"/><path class="st34" d="M21.5 17.2c-.5.2 0 .6-6.6-10.1-.3-.5-.4-.9.2-1.1 1.5-.6.4-1.9 6.6 10.3.1.4.2.7-.2.9z"/><path d="M11.9 45.4c-.6.8-1.1.5-1.6 0-.4-.4-.3-.6 0-1 9.1-9.1 8.4-8.6 8.8-8.5 1 .4.4.4-7.2 9.5z" fill="#f7f8f7"/><path d="M3 32c-.1-1-.2-.7 7.5-1.9 5-.8 5.1-1.2 5.2-.4.1.8.3.4-9.9 2.8-1.8.4-2.7 1.3-2.8-.5z" fill="#f8f9f9"/><path class="st29" d="M22.7 38.5c-4.8 11.1-4.3 12.2-5.6 11.4-.4-.3-1.1-.3-.7-1.2 5.8-11.2 5.3-11 5.9-10.8.2.1.4.2.4.6z"/><path class="st34" d="M5.5 16.4c.1.1 8.4 4.1 10.8 5.5.3.1.5.3.3.6-.3.7.1.5-11.6-4.4-.2-.1-.5-.1-.3-.5s.2-1 .8-1.2z"/><path class="st33" d="M29.2 39.7c0-.3-.2-.7.3-.7.5-.1.6.2.7.6 3.4 14.3 3.1 11.4 1.7 12-1.1.5-.8.1-2.7-11.9z"/><path class="st37" d="M52.2 49.4c-1.7-1.4-2 0 4.9-11.5.2-.3.3-.7.8-.4.5.3.2.6.1.9-.4.9-5.1 10.1-5.8 11z"/><path class="st38" d="M26.3 40.5c-1 12.3-.5 11.4-2.1 11.4-1.2 0-.8.3 1.1-12 .1-.4 0-.9.6-.8.6 0 .4.4.4 1.4z"/><path d="M40.1 28.4c12.3.9 11.9.6 11.7 1.9-.2.8-.4 1-1.2.8C38.5 29 38.8 29.5 39 28.7c.1-.7.9-.1 1.1-.3z" fill="#f6f7f6"/><path d="M51.4 25.5c-13.8-2.4-12.1-1.5-11.9-3.2.2-1.1-.1-.5 9.8 1.6.9.2 1.7.5 2.5.7.3.1.7.1.6.6-.1.4-.5.3-1 .3z" fill="#f5f5f5"/><path class="st41" d="M169.8 15.7c-6.4-.1-6.5-.4-6.5 1.1.1 8.1 0 16.3 0 24.4 0 1.6 0 1.6-1.6 1.6-2.8 0-2.8 0-2.8-2.8 0-25.5.6-24.4-1.1-24.3-1.8.1-3.6 0-5.4 0-1.3 0-.6-.8-.8-3.2-.2-2 1.1-.5 18.2-1.1v4.3z"/><path d="M61.7.2c1.9.1 1.9.1 1.9 2v14.3c0 1.9 0 1.9-1.9 1.9v-2.6c.6-.4.6-1 .5-1.6-.2-2.9-.2-5.7-.4-8.5 0-.8.1-1.6-.1-2.4V.2z" fill="#1a9d75"/><path d="M61.7 36.3c.9-.1 1.3.3 1.2 1.3-1.1 11-1.2 19.6-1.2-1.3z" fill="#00a661"/><path d="M61.9 5.7c.8 10.2 1.2 10.3-.2 10 0-9.9-.1-10.6.2-10z" fill="#f3f6f4"/><path class="st45" d="M129.7 22.1c-1.3.4-2.1-.4-3-1.6-2.6-3.8-6.6-5.5-11-4.6-12.8 2.5-12.1 21.4.8 23 4.1.5 8.7-1.9 10.9-5.8.3-.5.6-.8 1.2-.7 3.6.1 4.2-.4 3.7.8-7.5 18.4-33.5 10-30-8.8 3-16.1 24-17.8 30-3.1.4 1.1-.2.8-2.6.8z"/><path class="st46" d="M143.6 42.9c-1.1-.1-2.5.5-3.2-.3-.5-.5-.1 1.4-.2-29.9 0-.9.1-1.2 1.1-1.1 1.1.1 2.6-.4 3.2.2.7.7.2 2.1.2 3.2.1 29.5.5 28.1-1.1 27.9z"/><path class="st47" d="M81.7 27.4c-2.7 0-5.4-.1-8 0-1.4.1-.9-1-1.1-1.6-.3-.8-1.3-.1 16.4-4.6 1.5-.4 1.4-.2 1.9 5.2.1 1.4-.1 1-9.2 1z"/><path class="st48" d="M79.5 5.5c0 .1-9.7 13.3-9.7 13.3-.5 1.2-1.2 1.2-2.2.5-.9-.7-1 .7 5.9-16.1.3-.8.6-1 1.5-.6 3.1 1.7 4.1 2.1 4.5 2.9z"/><path class="st47" d="M89.5 18.8c0 .4-.3.4-.6.5-4.8 1.5-15.1 4.8-15.3 4.9-1.2.4-1.8.1-2-1.2-.1-.5.3-.6.6-.7 16-9.9 14.6-9.2 15-8.7.9 1.6 2 4.3 2.3 5.2z"/><path d="M63.6 45.5c0-2.6.1-5.2 0-7.8-.1-1.2.6-1.2 1.4-1.3 1.1-.3.5-1 4.8 16.6.2.7.1 1-.7 1.1-1.5.2-3.1.4-4.6.5-1.3 0-.9 0-.9-9.1z" fill="#00a563"/><path d="M73.7 28.2c17.6 1.3 17.2.8 17 2.1-.3 1.6-.5 3.3-1 4.9-.1.4-.2.6-.7.4-18-5.9-17-5.1-16.6-6 .3-.6 0-1.8 1.3-1.4z" fill="#00a36c"/><path d="M86.9 41.6c-1.1 1.9-1.1 1.9-2.8.7-13.5-9.7-13.5-9.4-12.8-10 1.6-1.5-3.3-3.1 16.8 5.3.8.2 1.1 0-1.2 4z" fill="#00a469"/><path d="M77.7 50.5c.1.3-.2.4-.4.5-1.5.8-2.9 1.6-4.5 2.2-1.2.4-.6.7-6.1-16.3-.4-1.3.9-1 1.3-1.4.4-.6-.3-1.6 9.7 15z" fill="#00a564"/><path d="M84.3 45.1c-1 1.4-2.9 3-4.3 4.1-.4.3.6 1.5-9.4-12.3-1-1.4-2-2-.6-3.1 1-.7-.3-1.2 13.9 10.8.1.2.2.3.4.5z" fill="#00a568"/><path d="M71.6 21.6c-.3.2-.6.8-.9.1-.2-.6-1.6-.7-.7-1.7C81.8 6.2 81.1 6.1 82 7.3c1.1 1.2 2.4 2.3 3.2 3.6.5.7 2.3-.8-13.6 10.7z" fill="#00a170"/><path class="st48" d="M64.4 17.7C65.8-.2 65.3.2 66.7.4c1.6.2 3.2.5 4.7.9.4.1.6.2.4.7-6.1 18.6-4.7 16.7-6.7 16.4-.4-.1-1 0-.7-.7z"/><path class="st38" d="M88.1 24.7c.3 1.2.4.8-12.2 1.7-.3 0-.7.1-.7-.4-.1-.5.3-.5.6-.5 15-2.5 11.6-2.2 12.3-.8z"/><path class="st33" d="M76.4 6.5C75 9 71.7 14.3 70.2 16.7c-.2.3-.2.9-.8.5-.6-.3-.2-.7 0-1C75 5 74.6 5.3 75.2 5.7c.4.2.9.3 1.2.8z"/><path class="st55" d="M86.3 17.7c0 .4-.3.4-.6.5-12 5.1-11.2 4.9-11.5 4.4-.4-.7-.3-.5 10.4-5.9.8-.4 1.7.2 1.7 1z"/><path d="M66.4 51.8c-1.2.3-.9.9-1.8-12 0-.3-.2-.8.4-.8.5-.1.5.4.6.7 2.3 14.8 2.1 11.6.8 12.1z" fill="#f9fbf9"/><path class="st55" d="M75.8 29.3c12.3 2.4 12.4 1.2 12 3-.1.5-.1 1-.9.7-10.1-3-12-2.1-11.8-3.4.1-.5.4-.4.7-.3z"/><path class="st2" d="M74.3 32.9c10.8 5.7 11.9 5.2 10.8 6.7-.4.6-.7.6-1.2.2-10.9-6.7-10.4-6.1-10.1-6.6.1-.1.1-.4.5-.3zm-1 17.2c-.5.1 0 .8-5.1-11.4-.1-.3-.3-.6.2-.8.7-.3.3-.5 6 10.7.4.7-.2 1.4-1.1 1.5z"/><path class="st37" d="M80.9 44.5c-.2.8-.7 1-1 1.3-.4.3-.6 0-.8-.2-8.3-9.7-8.1-9.1-7.7-9.6.5-.5 0-.8 8.9 8.2.3.2.5.3.6.3zm1.4-33.1c-.9.8-8.3 7.2-9.3 7.9-.2.2-.5.6-.9.1-.4-.4 0-.7.2-.9 9.2-9.2 8.6-8.7 8.8-8.5.5.5.8 1 1.2 1.4z"/><path class="st38" d="M65.5 15.1C67.7 1.7 67 3 68.5 3.2c1.3.2 1-.2-2 12-.1.3.1.8-.5.7-.5-.1-.6-.4-.5-.8z"/><path d="M169.6 11.4c1.7-.2.9 1.2 1.1 3.1.1.9-.2 1.3-1.1 1.2v-4.3z" fill="#353435"/><path class="st41" d="M191.5 24c5.4-6.9 15-3.9 15.3 3.4.2 5 .2 10 .1 14.9-.1 1.5-1.7.4-2.6.7-1.2.4-.9.4-.9-14.6 0-1.4-.4-2.6-1.3-3.6-1.2-1.3-4.4-1.5-6.1-.5-5.4 3.1-4.3 8.9-4.4 17.5 0 1-.2 1.3-1.2 1.3-2.3-.1-2.3 0-2.3-2.3 0-21.1-.6-20.2 1.2-20.2 2.5 0 2.2-.1 2.2 3.4z"/><path d="M238.7 20.5c4.2 0 3.6-.3 4.1 1 2 5.1 4 10.3 6.1 15.7 7.4-18.6 5.4-16.6 8.4-16.6 1.9 0 1.9 0 1.2 1.7-9 21.7-8.3 20.8-9.7 20.8-.9-.1-1-.6-1.3-1.2-9.5-22.6-8.8-20.8-8.8-21.4zm-61.9 11.3c0-11.6-.4-11.2.9-11.2 2.7 0 2.7 0 2.7 2.6v18.5c0 1-.2 1.4-1.3 1.3-2.9-.1-2.3.9-2.3-11.2z" fill="#0d0d0d"/><path d="M178.6 12.1c3.1-.1 3 4.5.1 4.5-2.9.1-3.2-4.5-.1-4.5z" fill="#111"/><path class="st46" d="M224.1 20c-6.5.1-11.5 5.1-11.7 11.5-.2 6.3 5.3 11.9 11.7 11.8 6.6-.1 11.7-5.1 11.8-11.6-.1-6.4-5.5-11.8-11.8-11.7zm0 19.7c-4.1.4-8.2-3.7-8.2-8 0-4.5 3.7-8.2 8.2-8.2 4.4 0 8 3.7 8.1 8.2.1 4.1-3.9 8.4-8.1 8z"/><path class="st45" d="M284.9 29.4c0-9 .2-8.9-.6-8.8-1 .1-2.1-.4-3 .4-.1.1 0-.1 0 3.2-1.2-1-2.1-2.2-3.4-2.8V21c-.5.3-.8-.1-1.2-.2C268 18 261.4 25 262.1 33c.7 7.8 7.7 12.8 15.9 9.4v-.3c1.4-.5 2.2-1.6 3.4-2.7 0 3.8-.2 3.7 2.6 3.7 1.3 0 .9.5.9-13.7zm-4.3 5c-.7 2.4-2.9 3.7-2.9 4.4l-.6.3c-3.3 1.6-6.7 1-9.3-1.7-5.1-5.3-1-15.1 7.4-13.6.9.2 1.6.9 2.5 1 0 1.2 4.7 2.9 2.9 9.6z"/><path d="M104.7 62.4c-.5 0-.5.3-.5.7 0 11.4-.2 11 .5 11 .6 0 .5.3.5-5.9 0-5.9.1-5.8-.5-5.8zm6 30.7c-.4-.2-.3-.4-.3-3.4v-2.8c-.3-2.8-4.8-2.3-4.7.3 0 .3-.1.6.4.6.3 0 .6-.1.6-.4 0-2 2.7-2.1 2.9-.3.1.7.1 1.4-.9 1.6-2.5.5-3.7 1.7-3 4.2.4 1.3 2 1.8 3.1.9.5-.4.8-.7 1.2 0 .3.8 1.8-.2.7-.7zm-3.2.1c-.8 0-1.1-.6-1.2-1.3-.4-2.5 1.7-1.8 3.1-3 0 1.7.3 4.5-1.9 4.3zM89.7 67.4c0-.9-.1-1.8-1.1-2.2-1.1-.4-2-.2-2.8.9-.2-.3.1-1-.6-.9-.6.1-.4.6-.4.9-.1 8.4-.1 7.8.5 7.8.7 0 .2-.3.4-6.1.1-2.3 3.1-3 3.1 0 .1 6.2-.3 6 .4 6.1.6.2.5.4.5-6.5zm7.2-2.3c-3.4 0-2.8 6.3-2.3 7.5 1 2.4 4 2 4.6.1.9-2.9.7-7.6-2.3-7.6zm1.8 4.3c0 1.7 0 4-1.7 4.1-2.1.1-2.1-4.4-1.4-6.5.7-2 3.3-1.1 3.1 2.4zm51.6 3.4c1-2.9.7-7.6-2.3-7.6-3.2 0-3.1 5.6-2.3 7.5 1 2.3 4 2 4.6.1zm-4-3.2c-.1-1.3.3-3.6 1.7-3.6 2.1 0 2.1 4.2 1.5 6.3-.6 2-3.4 1.8-3.2-2.7zM95.2 89.9c-.5 0-.5.3-.8 1.8-.5 1.9-2.9 2.2-3.7.2-.7-1.7-.8-5.1 0-7.9h.1c1.2-1.5 2.4-1.5 3.6 0h.1c.2 1.5.2 1.6.7 1.6.4 0 .4-.2.4-.5 0-.5 0-.9-.3-1.4h-.1c-.5-1.3-1.3-1.8-2.6-1.8s-2.1.5-2.7 1.8h-.1c-1.4 3.6-1.2 10.5 2.7 10.4 2.7.1 4.1-4.2 2.7-4.2zm2.1-4.7c-.5 0-.5.3-.5.7 0 8-.2 8 .5 8 .6 0 .5.1.5-4.4s0-4.3-.5-4.3zm-.3-3c-.4.6-.2 1.2-.1 1.8h.7c0-.6.2-1.2-.1-1.8 0-.1-.4-.1-.5 0zm6.9-.1c-.6 0-.4.4-.5 1.8v2c-1.7-1.7-3.5-1.3-4.1.8-1.6 5.2 1.5 9.6 4 6.2.2.4.1.9.6.8.5-.1.3.5.4-10.1 0-1 .1-1.5-.4-1.5zm-.8 9.9c-.2.7-.5 1.2-1.4 1.2-2 0-1.6-3-1.7-3.7.1-.6-.3-3.9 1.8-3.7 2 .2 1.8 4.3 1.3 6.2zm40.3-18.8c.1.3 0 .8.5.8.4 0 .4-.3.4-.6 0-11.3.2-11.2-.5-11.1-.5 0-.4-.1-.4 4.1-.5-1.2-1.3-1.5-2.2-1.4-3.9.5-2.6 13.2 2.2 8.2zm-3.4-3.4c.1-.8-.1-4 1.8-3.8 2 .2 1.9 4.4 1.3 6.4-.2.7-.5 1.1-1.3 1.1-2 0-1.6-2.6-1.8-3.7zm-3.2 17.7c-2.3-.8-2.9-1.8-2.3-3.6.9-1.5 2.5-1.5 3.4 0h.1c.1.1.1.3.1.7 0 .5.2.6.6.6.6-.1.4-.6.2-1.2h.1c-.8-1.8-1.8-2.3-3.6-2-1.1.2-1.6.9-2 1.8h-.1v.2c-.5 4.3 2.3 3.8 4.1 5 .9.6 1.3 2 .8 3.1-.8 1.7-4.1 1.8-4.2-1.1 0-.3-.1-.6-.5-.6-.5 0-.4.3-.4.7-.2 4.2 5.9 4.2 6.3.4.3-2.2-.3-3.1-2.6-4zm8.2-2.3c-.8 0-.5.7-.5 1.1-.1 4.3.2 5.3-.3 6.1-.7 1.2-2.7 1.3-2.7-.5-.2-6.8.1-6.7-.5-6.7-.4 0-.5.2-.5.5 0 2.3 0 4.6.1 6.9 0 1 .9 1.6 2 1.6.9 0 1.3-.6 2-1.2.1.4-.1.9.5.8.3 0 .4.5.3-7.6 0-.4.3-1-.4-1zm-28.1-1.5c.1-1.3.1-1.6-.4-1.6-.4 0-.5.3-.4.6v1h-.1v2.1c-1.8-1.5-3.7-.9-4.1 1.4-1.2 6.7 2.3 8.5 4.2 5.7.2.4-.1 1 .6.9.3 0 .2.8.2-10.1zm-2.6 9.5c-.9 0-1.4-.5-1.5-1.2-.4-1.7-.4-3.4 0-5 .4-1.5 2.4-1.7 2.9 0 .2.8.2 1.6.3 2.5-.1 1.7 0 3.7-1.7 3.7zm19.5-19.1c1.1.5 2.1.2 2.9-.7.1 0 .2.1.2.1.3.7.9.9 1.4.5.7-.5-.3-.6-.4-.9-.3-1.1 0-2.7-.2-6-.1-3.1-4.8-2.6-4.7.2 0 .3.1.5.4.5.2 0 .5 0 .5-.3.3-2.4 2.8-1.9 2.9-.4 0 1.4 0 1.5-2.2 2.1-1.2.3-1.7 1.1-1.8 2.2-.1 1.2 0 2.2 1 2.7zm2.9-4.7c0 1.9.4 4-1.6 4.1-.8 0-1.2-.4-1.3-1.1-.5-2.6 1.9-2.3 2.9-3zm-17.5 4.9c2.1-.3 2.7-3.1 1.9-3.2-.8-.1-.5.7-.7 1.1-.3.6-.6 1.2-1.4 1.2-.8 0-1.2-.5-1.4-1.2-.7-2.2-.4-2.4 1.9-2.4 2.8 0 2.6-.7 1.7-3.4-.9-2.5-6.3-2-4.4 6.1.2 1.4 1.2 2 2.4 1.8zm-.2-8.4c.9 0 1.6 1.1 1.5 2.4-.1 1.4-1.2.4-1.7.8-.5-.4-1.5.6-1.5-.8 0-1.2.8-2.4 1.7-2.4zm12.8-.8c-.7.1-1.2.6-1.6 1.2-.3-.3.2-1-.6-1s-.4.6-.5 1c-.1 8.3-.1 7.8.5 7.8.8 0 .3-.3.4-5.3.1-3.4 2.4-1.7 2.4-3.2 0-.5-.3-.5-.6-.5zm-11 19.9c-1.3 0-2.2.7-2.5 2.1-.7 2.9-.4 7.5 2.8 7.1 1.6-.2 2.7-3.1 1.8-3.2-.8-.1-.6.4-.8 1-.2.7-.5 1.2-1.4 1.2-.9 0-1.3-.5-1.5-1.2-.6-2.2-.5-2.4 1.9-2.4 2.5 0 2.5-.1 2-2.4-.3-1.5-1-2.2-2.3-2.2zm-.2 3.7c-.4-.4-1.5.7-1.5-.7 0-3.1 3.3-3.1 3.2.1 0 .6 0 .6-1.7.6zm-9-21.6c-.1-1.6-1.5-2.5-3-1.8-.4.2-.7.5-1 .8-.3-.2.2-.9-.5-.8-.6.1-.4.5-.4.8-.1 8.7-.1 7.9.5 7.9.8 0 .4-.1.5-6.1 0-2.3 3-2.9 3 0-.1 6-.1 6.1.5 6.2.5 0 .5-.3.5-.6-.1-2.2 0-4.3-.1-6.4zm15 6c.3.3.1.6.1.8 0 1-.1 1.9-1.1 2.3-.9.3-1.6-.1-2-1-.1-.3-.4-.2-.6-.1-.3.1-.2.4-.2.6.4 2.1 4.8 2.4 4.8-1.5v-8c0-.3.2-.8-.3-.9-.8-.1-.3.6-.6.9-1.3-2.4-5.4-1.3-4 5.7.5 2.6 2.8 2.7 3.9 1.2zm-2.9-5.9c.4-1.4 2-1.7 2.7 0 .3.8.2 1.6.3 2.5-.1 1.5 0 3.7-1.7 3.7-2-.2-1.8-4.4-1.3-6.2zm-11-1c1.5 0 .6 1 .9 6.8.1 1 1.2 1.6 2 1.2.4-.2.4-.7-.1-.7-1.4 0-1-.7-1-6 0-.7-.1-1.3.9-1.1.7.1.6-1 .1-.9-2.1.3-.3-2.3-1.5-2.4-1.3-.1.5 2.5-1.5 2.5-.1-.2-.3.6.2.6zm47.4 6c.1-.4.4-.9-.2-1.1-.7-.2-.5.5-.6.8-1.2 3.1-3.8.8-3.2-1.9.1-.5.7-.2 2.1-.2 2.3 0 2.8-.1 1.7-3.3-.8-2.2-5.7-2.9-4.6 5.4.3 3 4 3.4 4.8.3zm-2.4-6.3c.8 0 1.5 1 1.6 2.2.1 1.5-1.1.6-1.6.9-.5-.4-1.6.6-1.6-.7-.1-1.2.7-2.4 1.6-2.4zm-67 .3c1.2-.1.9.3.9 3.7v3c.1 1.6 2.3 1.6 2.3.9 0-1-1.3.6-1.4-1.8 0-5.7-.2-5.9.8-5.7.4.1.6 0 .6-.5s-.3-.5-.7-.4c-1.5.2-.1-2.4-1.1-2.4-1.2 0 .3 2.6-1.3 2.4-.5-.1-.4.8-.1.8zm83 17.8h1l1.2-2.1c-1.2-.6-1.3.3-2.2 2.1zm9.7-11c0 .4-.3 1 .4 1 .9 0 .2-.2.5-6.1.1-2.1 3-3.2 3.1.1 0 6.2-.2 6 .5 6.1.6 0 .4.1.5-6.4 0-1 0-2-1.1-2.4-1.1-.4-2.1-.2-2.9 1-.2-.4.1-1.1-.6-.9-.6.1-.3.7-.3 1-.2 2.2-.2 4.4-.1 6.6zM32.2 62.4c-1-.1-.7 0-.7 5.9s-.2 5.8.4 5.8c.7 0 .5-.5.5-2.7 0-.7-.2-1.6.1-2.1.3-.5 1.3-.1 1.9-.2 1.9-.2 2.9-1.6 2.8-3.8-.1-3.6-3-2.8-5-2.9zm3.6 5c-.8.9-1.9.8-3 .7-.7 0-.2-.7-.4-3.6-.1-1 .2-1.5 1.1-1.2 1.2 0 2.2 0 2.6 1.2.4 1 .4 2-.3 2.9zm138 6.9c1.3-.1 2.1-1 2.3-2.5 0-.3.2-.6-.2-.7-.8-.2-.5.6-1 1.6-1 1.9-3.4.2-2.8-2.5.2-.9 1.2-.2 1.7-.4h.4c2.1 0 2.7.1 1.9-2.7-.3-1.1-.8-1.9-2-2-1.3-.1-2 .4-2.5 1.7-1.1 2.7-.8 7.7 2.2 7.5zm-.1-8.4c.8 0 1.7 1.3 1.6 2.5-.1 1.3-1.2.2-1.7.7-.5-.4-1.6.6-1.6-.8 0-1.2.8-2.4 1.7-2.4zm-122.8-.6c-1.1-.3-2-.1-2.7 1-.3-.3.1-1-.6-.9-.6.1-.4.6-.4 1-.1 8.3-.1 7.7.4 7.8.9 0 .2-.3.5-6.1.1-2.3 3.1-2.9 3.1.1-.1 6.2-.1 6 .5 6 .4 0 .5.6.4-6.7 0-1-.2-1.9-1.2-2.2zm-12-2.9c-.6 0-.4-.2-.4 5.8 0 6.1-.1 5.9.4 5.9.6 0 .5-.4.5-.8 0-11.4.2-10.9-.5-10.9zm28.3 11c-.4-.3-.3-.7-.3-1.1 0-4.9.5-6.8-1.8-7.1-1.6-.2-2.5.4-2.8 1.9-.1.3-.4.7.2.9.5.2.6-.2.7-.6.4-1.9 2.8-1.7 2.8.1 0 .8-.1 1.5-1.1 1.7-1.7.3-2.9.9-3 2.6 0 1 .1 2 1.2 2.5 1.1.4 2 .1 2.8-.9.2.3.3.8.8.8.3.1.7.2.9-.1.2-.4-.1-.6-.4-.7zm-2.9.1c-.8 0-1.2-.4-1.3-1.1-.4-2.2 1-2.3 3-2.9.1 1.8.1 3.9-1.7 4zm9.7-8.1c-.4.3-.5.8-.9 1-.7-1.7-2.2-1.8-3.6-.3-.3-.2.2-.9-.5-.9-.5 0-.4.3-.4.6 0 8.4-.1 8.1.4 8.2 1.4.1-1-8.3 2.3-8.1 1.5.1 1.1 1.8 1.1 7.2 0 .4-.1.9.5.8.7 0 .3-.1.5-6.2 0-1 .6-1.9 1.6-1.9 1.5.1 1.2 1.8 1.2 7.4 0 .3 0 .7.5.7.4 0 .4-.3.4-.6 0-2.2.1-4.4 0-6.6-.2-1.3-1.8-2.1-3.1-1.3zm-13.7-.1c-.7 0-.4-.2-.4 9.4 0 2.5-1.3 1-1.3 2.1 0 .8 2.2.5 2.2-1.4v-4.5c-.1-5.7.1-5.6-.5-5.6zm0-2.9c-.6 0-.5.5-.5.8 0 .3-.2.9.4.9.7.1.4-.5.5-.8-.1-.3.3-.9-.4-.9zM46.1 73.5c-.7-.4-.5-.9-.5-1.5-.1-4.8.5-6.6-1.8-6.9-1.5-.2-2.5.4-2.8 1.6-.1.4-.4.9.2 1.1.6.2.6-.4.7-.8.2-.7.8-1.2 1.5-1.1 1.7.1 1.8 2.8.3 3-.4.1-.8.3-1.3.4-1.1.3-1.7 1-1.7 2.1 0 1-.1 2.2 1.1 2.6 1.1.4 2.1.1 2.9-.9.4 1.7 2.3.9 1.4.4zm-3.2 0c-.8 0-1.1-.4-1.2-1-.5-2.2.9-2.3 3-2.9 0 1.7 0 3.8-1.8 3.9zm15.3-2.3c-.8-.2-.5.6-1 1.6-.4.8-1.3 1-2 .5-.5-.4-1.2-2.6-.9-3.1.3-.5.7-.3 2.1-.3 2.5 0 2.6-.1 1.9-2.6-.9-3.6-6.3-3-4.8 5 .3 1.4 1.3 2.3 2.6 2.1 2.2-.3 2.9-3.1 2.1-3.2zM56 65.9c.8 0 1.6 1.2 1.6 2.3 0 .7 0 .7-1.8.7-.4-.4-1.5.7-1.5-.7 0-1.1.8-2.3 1.7-2.3zm23.2.2c-1.3 2.2-1.2 4.6-.3 6.9.4 1.1 1.5 1.5 2.7 1.2 1.8-.5 2.4-3 1.6-3.1-.8-.1-.5.7-.9 1.6-.4.8-1.1 1-1.9.5-.6-.3-1.4-2.6-1-3.2.3-.5.7-.3 2.1-.3 2.4 0 2.6-.2 1.9-2.6-.8-2.6-3.4-2.4-4.2-1zm1.7 3c-.5-.4-1.5.5-1.6-.7-.1-1.3.8-2.5 1.6-2.5.9 0 1.6 1.1 1.6 2.3.1 1.5-1.1.4-1.6.9zm44.9 19.3c-1.1-.7-.8-2.8.9-2.6 1.8.1.7 2.1 1.8 1.9.6-.1.4-.7.3-1-.2-.9-.7-1.5-1.6-1.6-1-.1-2.1 0-2.6 1-.4.9-.5 1.9.2 2.8 1.2 1.3 2.7 1.1 3.1 2 .6 1.2 0 2.6-1.8 2.3-1.6-.2-.6-2.3-1.7-2.1-.5.1-.3.6-.3.9.3 3.1 4.4 2.8 4.9.3.7-2.8-2.4-3.4-3.2-3.9zm56.6-3.2c-.8-.1-.5-.3-2.1 7.1-.3 0-.1.3-.8-2.4-1.1-4.6-.9-4.8-1.7-4.7-.6.1-.5-.4 1.7 8 .1.4.2.7.6.7.6 0 .6-.3.7-.7 2.1-8.4 2.1-8 1.6-8zm12-12.3c.8-2.2 1-4.5-.2-6.7-1.3-2.3-5-1.2-4.7 3.5-.3 5.7 4.1 5.3 4.9 3.2zm-3.5-.3c-.7-1.9-.7-3.8 0-5.7.7-1.7 3.1-1.3 3.1 2.5 0 1.5-.1 3.9-1.6 4-.7.1-1.2-.2-1.5-.8zm8.9-7.3c-1.1-.4-2-.2-2.8.9-.2-.4 0-1-.6-.9-.6.1-.4.5-.4.9-.1 8.3-.1 7.9.5 7.9.7 0 .3-.1.4-5.9 0-2.5 3.1-3.2 3.1-.1 0 6.3-.1 6 .5 6s.5.2.5-6.5c0-1-.2-1.9-1.2-2.3zm3.2.7c-1 1.4-1.2 5.6-.2 7.1 1 1.6 3.3 1.6 4.2-.1.6-1 .6-2.1.6-3.1 0-2-.2-2.9-.8-3.8-.9-1.2-3-1.3-3.8-.1zm3.2 6.4c-.4 1.3-2.1 1.5-2.8 0-.5-1.3-.8-6.5 1.4-6.4 2.1 0 2 4.4 1.4 6.4zm-16 9.7c-.6 0-.4.5-.4 1.9h.7c.4-.4.2-.9.2-1.4 0-.3-.2-.5-.5-.5zm25.4-18c.7 0 .4-.5.5-.8-.1-.3.2-.9-.5-.9s-.5.5-.5.8c0 .4-.2.9.5.9zm-29.3 25.5c2.4 0 2.4 0 2-2.4-.5-3.1-4-2.8-4.7-.7-1 3.1-.5 8.2 2.7 7.6 1.7-.3 2.5-3.1 1.7-3.2-.8-.1-.5.7-.9 1.5s-1.3 1-2 .5c-.6-.4-1.2-2.4-.9-3.1.4-.4.7-.2 2.1-.2zm1.2-1.6c0 1.4-1.1.3-1.6.8-.5-.5-1.7.6-1.6-.9 0-2.9 3.2-2.9 3.2.1zm2.7-2.8c-.5 0-.4.4-.4.7 0 8.3-.2 8 .4 8 .6 0 .4-.1.4-4.2 0-4.6.2-4.5-.4-4.5zm2.8 1.6c.3-1.3 2.6-1.6 2.6.4 0 .4.2.5.5.5.4 0 .4-.3.4-.6-.1-2.9-3.4-2.4-4.2-1.1-.7 1.1-.4 2.4.7 3.3.5.4 1.1.6 1.7.9 1.8.7 1.5 3.1-.4 3.1-2.1 0-1-2.2-2-2.2-.9.1-.6 3 1.9 3.1 2.6 0 3.3-2.9 1.9-4.4-1.3-1.3-3.6-.8-3.1-3zm55-21.6c-.7.1-1.2.6-1.5 1.2-.4-.3.2-1.2-.7-1-.7.1-.4.7-.4 1.1-.1 7.7-.2 7.7.5 7.7.6 0 .3-.1.4-5.3.1-3.3 2.4-1.8 2.4-3.2-.1-.6-.4-.6-.7-.5zm-32.4.1c-.5 0-.4-.1-.4 4.4s-.1 4.4.4 4.4c.6 0 .5-.4.5-.7 0-8.3.2-8.1-.5-8.1zm38.6 8c-.3-.2-.2-.3-.3-3.4 0-2.8.3-4.5-1.8-4.7-1.6-.2-2.5.4-2.9 1.9-.1.3-.3.7.2.9.6.2.6-.2.7-.6.4-1.9 2.7-1.6 2.8.1.2 3-3.9.7-4.1 4.2 0 .9 0 1.9.9 2.4 1 .5 2 .5 2.7-.4.6-.6.5.1.7.2.4.3.9.4 1.2.2.7-.4.1-.6-.1-.8zm-3 .2c-.8 0-1.1-.5-1.2-1.2-.5-2.1 1.4-2.3 3.1-2.8-.1 1.6.2 4-1.9 4zm-7.2-.2c-.2-.2-.2-.2-.2-3.3 0-2.6.4-4.6-1.9-4.8-1.6-.2-2.4.4-2.8 1.8-.1.3-.4.8.2 1 .6.2.6-.3.7-.7.3-1.3 2-1.8 2.7-.5.5.9.1 2-1 2.3-1.1.4-2.9.5-2.9 2.6 0 1 0 2 1 2.5.9.5 1.9.4 2.6-.4.4-.4.4-.1.6.1.3.5.9.6 1.3.3.7-.5 0-.7-.3-.9zm-2.9.2c-.7 0-1.1-.4-1.2-1-.4-2.3 1-2.3 3-3 0 1.8.2 3.9-1.8 4zm-18.7-.2c-.3-.3-.3-.4-.3-3.4 0-2.7.4-4.6-2.1-4.7-1.5-.1-2.4.6-2.6 2 0 .3-.3.7.3.8.5.1.6-.2.6-.6.2-1.8 2.7-1.8 2.8 0 .2 2.9-4 .9-4 4.1 0 1-.2 2.1.9 2.6 1 .5 2 .4 2.7-.5.4-.5.3-.1.5.2.3.5.9.6 1.4.3.7-.5.1-.6-.2-.8zm-3 .2c-.8 0-1.1-.5-1.2-1.1-.5-2.6 1.7-2.2 3.1-3 0 1.4.3 4.1-1.9 4.1zm6.1-4.6c-1.7-.8-1-2.9.3-2.9.8 0 1.3.5 1.3 1.4 0 .3.2.5.5.5.8 0 .7-2.5-1.3-2.7-1.4-.2-2.3.4-2.6 1.5-.4 1.4 0 2.5 1.3 3.1 1.3.6 2.7.7 2.4 2.6-.1.8-.7 1.1-1.5 1.1-2.1 0-1.1-2.3-2.1-2.2-.5 0-.4.4-.4.7 0 1.5.8 2.3 2.4 2.3 1.6 0 2.5-.9 2.5-2.6.3-1.9-1.9-2.3-2.8-2.8zm10.5-3.7c-.9-.1-1.7.1-2.3 1.1-.3-.3.1-1-.6-.9-.5.1-.3.5-.3.8 0 11.4-.2 10.9.4 10.9.5 0 .4-.1.4-3.7 4.9 4.8 6.1-7.8 2.4-8.2zm-.7 8.3c-1.9-.1-1.8-4.2-1.4-6.1.5-1.9 3.3-2.7 3.2 2.6-.1 1.6-.1 3.5-1.8 3.5zm-22.1-8.2c-.7-.1-.3.5-.6.9-3-3.6-5.5 1.9-3.7 6.6.5 1.2 1.9 1.6 2.9 1 .3-.2.4-.7.9-.7 0 1.2.1 2.6-1.1 3.1-2 .8-1.7-1.7-2.8-1.1-.8.4 1 2.9 3.1 1.9 2-.9 1.7-2.4 1.6-10.9 0-.2.2-.7-.3-.8zm-1 7.2c-.3 1-1.9 1.2-2.5-.1-.4-.9-.3-1.9-.4-2.8 0-1.5.1-3.4 1.6-3.6 2-.2 2 4.4 1.3 6.5zM158.6 85c-2.5-.1-2.8 2.2-2.9 4.6.1.8 0 1.8.3 2.6 1 3 4.2 2.3 4.7-.2.1-.3.5-.9-.2-1.1-.7-.2-.6.4-.7.8-.2.8-.5 1.4-1.5 1.4-.9 0-1.3-.6-1.5-1.4-.5-2.2-.5-2.2 1.7-2.2 2.6 0 2.9-.5 2-3-.2-.8-.7-1.5-1.9-1.5zm-.5 3.7c-.4-.4-1.4.7-1.4-.6-.1-3 3.1-3.2 3.2-.2 0 .8 0 .8-1.8.8zm-3.3 4.5c-1.3.1-.9-.8-1-6.1 0-2 1.5-.4 1.4-1.5 0-.2-.1-.4-.4-.4-1.4.2-1.1-.7-1.1-1.5.1-.6.1-1-.4-.9-.6 0-.4.4-.5 1.2 0 .6.4 1.3-.8 1.2-.4 0-.4.9.1.8 1.1-.1.7 0 .8 6.6 0 1.7 2.3 1.9 2.3.9.1-.3-.2-.3-.4-.3zm22.4.1c-.8-.3-.5-1-.5-1.5-.1-5 .5-6.5-2-6.8-1.5-.1-2.4.5-2.7 1.8-.1.3-.4.8.2 1 .6.1.6-.3.6-.7.4-1.8 2.7-1.6 2.8 0 .1.8 0 1.6-1.1 1.7-.4.1-.8.3-1.1.4-1.1.3-1.7 1.1-1.8 2.2-.3 2.9 2.4 3.8 3.9 1.9.1.1 1.1 1.4 1.7.7.1-.3.2-.6 0-.7zm-3.2-.1c-.8 0-1.2-.4-1.3-1.1-.5-2.6 1.6-2 3-3.1 0 1.9.1 4.1-1.7 4.2zm-6.1-20.1c0-10.2-.5-9.8 1.7-9.8h.2c.4 0 .8.1.7-.6-.1-.7-.5-.4-.8-.4-5.7 0-5.7-.2-5.7.4 0 .4.2.5.6.5 2.8-.1 2.1-1.3 2.1 9.7 0 .4-.2 1 .5 1 .9.2.7-.4.7-.8zm3 20.1c-1.4.1-.9-.8-1-6 0-.7-.1-1.4 1-1.2.3 0 .4-.1.4-.4 0-1.1-1.6.7-1.4-1.8h-.1c.1-.3 0-.6 0-.9-1.1-.2-.9.6-1 1.2 0 .6.4 1.3-.8 1.2-.4 0-.4.9.1.8 1.1-.1.7-.1.7 6.6 0 1 .8 1.7 1.8 1.6.8-.3.9-1.1.3-1.1zm-22.3-4.6c-1.5-.7-1.1-2.8.5-2.8 1.7 0 .8 1.9 1.8 1.9.3 0 .3-.3.3-.5.2-2.9-3.3-2.5-4.1-1.4-.7 1.1-.5 2.5.5 3.4.7.6 1.5.7 2.2 1.1 1.2.8.9 2.9-.9 2.9-2.2 0-.8-2.3-2.1-2.2-.5 0-.4.4-.4.7 0 3.1 4.2 3.1 4.8.6.9-2.7-1.6-3.2-2.6-3.7zm33.7-16.8c0-.3.1-.6-.3-.6-.8-.1-.5.4-.8 1.1-.3.7-.6 1.3-1.5 1.2-1.5 0-1.4-1.6-1.7-3.6.1-.8.1-1.4.2-2 .4-2.5 2.7-2.6 3.1-.4.1.3.1.5.7.4.3 0 .3-.3.2-.4-.2-.9-.5-1.9-1.5-2.2-3.5-1.1-4.2 3.8-3.2 7.4.7 2.6 4.5 2 4.8-.9zm-15.2 15.1c0-1.5-1.2-2.2-2.7-1.8-.5.1-.8.6-1.3.9-.3-.3.1-.9-.5-.8-.6 0-.4.5-.4.8-.1 8.6-.1 7.9.4 7.9.7 0 .3-.2.5-5.8 0-1.5.6-2.3 1.7-2.3 1 0 1.4.6 1.4 2.3.1 5.6-.2 5.8.4 5.8.5 0 .4-.4.4-.7.1-2.1.1-4.2.1-6.3z" fill="#353538"/></svg>